<svg width="22" height="22" viewBox="0 0 22 22" fill="none" xmlns="http://www.w3.org/2000/svg">
<g clip-path="url(#clip0)">
<path d="M14.3707 11.1391C14.3707 12.0115 14.0242 12.848 13.4073 13.4649C12.7905 14.0817 11.9539 14.4282 11.0816 14.4282C10.2093 14.4282 9.37267 14.0817 8.75584 13.4649C8.13901 12.848 7.79248 12.0115 7.79248 11.1391C7.79248 10.2668 8.13901 9.4302 8.75584 8.81337C9.37267 8.19654 10.2093 7.85001 11.0816 7.85001C11.9539 7.85001 12.7905 8.19654 13.4073 8.81337C14.0242 9.4302 14.3707 10.2668 14.3707 11.1391V11.1391Z" fill="white"/>
<path d="M0.556641 11.1391C0.556641 11.1391 4.50357 3.90308 11.0818 3.90308C17.66 3.90308 21.607 11.1391 21.607 11.1391C21.607 11.1391 17.66 18.3752 11.0818 18.3752C4.50357 18.3752 0.556641 11.1391 0.556641 11.1391ZM11.0818 15.7439C12.3031 15.7439 13.4743 15.2587 14.3379 14.3952C15.2014 13.5316 15.6866 12.3604 15.6866 11.1391C15.6866 9.91786 15.2014 8.74663 14.3379 7.88307C13.4743 7.01951 12.3031 6.53437 11.0818 6.53437C9.86054 6.53437 8.6893 7.01951 7.82574 7.88307C6.96218 8.74663 6.47704 9.91786 6.47704 11.1391C6.47704 12.3604 6.96218 13.5316 7.82574 14.3952C8.6893 15.2587 9.86054 15.7439 11.0818 15.7439V15.7439Z" fill="white"/>
</g>
<defs>
<clipPath id="clip0">
<rect width="21.0503" height="21.0503" fill="white" transform="translate(0.556641 0.613968)"/>
</clipPath>
</defs>
</svg>
